<?xml version="1.0" standalone="no"?>
<!DOCTYPE svg PUBLIC "-//W3C//DTD SVG 20010904//EN"
 "http://www.w3.org/TR/2001/REC-SVG-20010904/DTD/svg10.dtd">
<svg version="1.0" xmlns="http://www.w3.org/2000/svg"
 width="404.000000pt" height="404.000000pt" viewBox="0 0 404.000000 404.000000"
 preserveAspectRatio="xMidYMid meet">
<metadata>
Created by potrace 1.14, written by Peter Selinger 2001-2017
</metadata>
<g transform="translate(0.000000,404.000000) scale(0.100000,-0.100000)"
fill="#000000" stroke="none">
<path d="M0 2554 l0 -1485 113 6 c706 40 1314 281 1832 725 614 528 972 1271
1021 2123 l6 117 -1486 0 -1486 0 0 -1486z"/>
<path d="M3092 2558 l3 -1483 473 -3 472 -2 0 1485 0 1485 -475 0 -475 0 2
-1482z"/>
<path d="M0 475 l0 -475 2020 0 2020 0 0 475 0 475 -2020 0 -2020 0 0 -475z"/>
</g>
</svg>
